<svg id="Calque_1" data-name="Calque 1" xmlns="http://www.w3.org/2000/svg" viewBox="0 0 545.3 285.95"><defs><style>.cls-1{fill:#fcfc03;}.cls-2{fill:#c63636;}.cls-3{fill:#fff;}.cls-4,.cls-5{isolation:isolate;}.cls-5{font-size:350px;fill:#44538f;font-family:Amaranth;}</style></defs><title>Plan de travail 1</title><rect class="cls-1" x="255.8" y="3.96" width="75.89" height="159.33" rx="10.45" transform="translate(23.56 -58.78) rotate(11.9)"/><rect class="cls-2" x="221.27" y="3.96" width="75.89" height="159.33" rx="10.45" transform="translate(-3.64 12.28) rotate(-2.69)"/><path d="M169,178.34A107.59,107.59,0,1,1,276.52,286,107.52,107.52,0,0,1,169,178.34Zm89.53-73a4.39,4.39,0,0,0-.89.58c-3.54,3.4-7.08,6.8-10.58,10.25a260.48,260.48,0,0,0-19.57,21,3.54,3.54,0,0,0-.91,2.26,62.73,62.73,0,0,0,2.18,18c2.59,9.83,7,18.85,12.14,27.55a2.52,2.52,0,0,0,2,1.31q13.5,2.22,27,4.53c5.63.95,11.25,2,16.89,2.88a2.1,2.1,0,0,0,1.57-.38,244.87,244.87,0,0,0,32.68-35,1.64,1.64,0,0,0,.25-1.79Q314.59,138.7,308,120.82c-1.45-3.95-1.43-3.95-5.32-5.63C288.7,109.14,273.82,107,258.5,105.33ZM326.36,246c2.34-.12,4.68-.28,7-.36a8.9,8.9,0,0,0,5.15-1.88,51.88,51.88,0,0,0,10.13-9.72c5.66-7.15,11.13-14.45,16.65-21.71a2.23,2.23,0,0,0,.36-1.43c-.73-8.24-1.32-16.5-2.29-24.72A68.77,68.77,0,0,0,358.63,168a1.56,1.56,0,0,0-1.35-1.06c-2.49-.44-5-.85-7.43-1.47-8.83-2.24-17.64-4.56-26.45-6.87a1.39,1.39,0,0,0-1.74.55,241.29,241.29,0,0,1-32.23,34.63,1.54,1.54,0,0,0-.53,1.87A111.73,111.73,0,0,1,293,215.94c.84,7.17,1.53,14.35,2.25,21.53a1.84,1.84,0,0,0,1.22,1.71A69.15,69.15,0,0,0,326.36,246ZM225.3,138.78c-2.75-.15-5.55-.35-8.37-.44a165.24,165.24,0,0,1-22.55-1.85,1.67,1.67,0,0,0-1.22.42c-1.28,1.26-2.55,2.53-3.71,3.9-8.45,10-13.62,21.53-16.61,34.15a2.63,2.63,0,0,0,0,1.08c1.06,5.31,2,10.66,3.27,15.92,2,8.27,5.07,16.13,10.1,23.1a6.49,6.49,0,0,0,1,1.12,29,29,0,0,0,13.29,6c5.36,1,10.8.84,16.21,1.13,2.48.14,3.54-.69,4.51-2.93,5.05-11.77,10.95-23.1,18.71-33.36a1.12,1.12,0,0,0,0-1.46c-2.46-4.62-5.06-9.17-7.28-13.91a73.68,73.68,0,0,1-6.79-23.3C225.56,145.22,225.5,142.1,225.3,138.78ZM334.84,246.71a1.59,1.59,0,0,0-.31-.1l-.77.08a73.75,73.75,0,0,1-18.3-.48A70.84,70.84,0,0,1,295.73,240a1.6,1.6,0,0,0-1.34,0,66.71,66.71,0,0,1-17.4,9.24c-6.82,2.54-13.67,5-20.58,7.33-2.3.76-3.14,2.05-3.44,4.33-.69,5.19-.15,10.31.32,15.46a4.91,4.91,0,0,0,2.63,4,30.69,30.69,0,0,0,13.41,4.2,95.68,95.68,0,0,0,22.36-.78,105.21,105.21,0,0,0,41.08-15c.28-.18.54-.38,1-.69l-2.13-.12-2-.15C333.68,261.26,334.57,254.06,334.84,246.71ZM242.4,82.86c1.53,1.61,2.84,2.9,4,4.27,4.2,4.83,7.55,10.26,10.93,15.66a3.28,3.28,0,0,0,2.67,1.66c6.32.83,12.65,1.59,18.92,2.68a100.9,100.9,0,0,1,27.26,8.51,1.43,1.43,0,0,0,1.75-.16,143.53,143.53,0,0,1,17.24-11.34c2.63-1.42,5.36-2.65,8.27-4.08-1.64-2.22-3.2-4.51-5-6.66-4.61-5.66-10.15-10.34-15.85-14.85a6.87,6.87,0,0,0-2-1.1,104.69,104.69,0,0,0-26-5.29,39,39,0,0,0-8.22-.18,100.73,100.73,0,0,0-25.33,6.56C248.23,79.78,245.42,81.37,242.4,82.86Zm10.16,175c-.2-.15-.36-.3-.54-.41a82.32,82.32,0,0,1-18.58-16.69c-4.1-5-8-10.12-11.95-15.22a2.86,2.86,0,0,0-2.46-1.22c-5.23-.14-10.48-.22-15.69-.64a30.4,30.4,0,0,1-14.7-5c-.81-.54-1.59-1.14-2.46-1.77-1.18,6.72.07,13,2.49,19.15l-1.31.57c.15.24.25.43.37.61a105.52,105.52,0,0,0,44.33,38c5.08,2.32,10.44,3.92,16.15,3.56,1.4-.09,2.78-.41,4.23-.64C251.63,271.13,250.79,264.47,252.56,257.81Zm123.61-41.74c.13-.32.3-.71.45-1.12a105.52,105.52,0,0,0,6.15-28.46,108.92,108.92,0,0,0-4.88-41.19,11.49,11.49,0,0,0-4.82-6.37,16.43,16.43,0,0,0-6.29-2.74,5.82,5.82,0,0,0-.22.68c-.67,3.26-1.31,6.53-2,9.79-1.41,6.5-2.67,13.05-5.21,19.25a1.64,1.64,0,0,0,.06,1.13,76,76,0,0,1,4.74,16.87,215.18,215.18,0,0,1,2.53,25.46,2.71,2.71,0,0,0,2,2.81C371.23,213.29,373.65,214.74,376.17,216.07ZM315.48,79.18c.06.18.06.23.09.25l2.76,2.34c6.3,5.33,12.05,11.15,16.27,18.33a4.23,4.23,0,0,0,.78.91c2.09,1.95,4.2,3.88,6.28,5.84,8.36,7.88,16.45,16,23,25.48,1.16,1.67,2.26,3.19,4.48,3.39a3.5,3.5,0,0,1,1.41.57c1.7,1,3.38,2,5.11,3a106.93,106.93,0,0,0-60.21-60.15ZM170.21,173.7c1.76.12,1.75.12,2.15-1.42.18-.71.38-1.41.59-2.11,3.81-12.84,9.7-24.48,19.35-34a1.85,1.85,0,0,0,.46-1.14,60.29,60.29,0,0,1,4.51-20.49c1.6-3.88,3.56-7.62,5.37-11.42.21-.45.64-.89-.14-1.22C185,116.43,169.31,151.29,170.21,173.7Zm33.15-72.76.15.42a6.19,6.19,0,0,0,1.23-.44A188.63,188.63,0,0,1,233,86c3.36-1.39,6.88-2.34,10-4.42,5.72-3.82,12.21-5.93,18.8-7.71,1.88-.51,3.78-1,5.68-1.42C242.76,74.54,221.46,84.16,203.36,100.94Z"/><path class="cls-3" d="M258.5,105.33c15.32,1.65,30.2,3.81,44.2,9.86,3.89,1.68,3.87,1.68,5.32,5.63q6.57,17.88,13.18,35.74a1.64,1.64,0,0,1-.25,1.79,244.87,244.87,0,0,1-32.68,35,2.1,2.1,0,0,1-1.57.38c-5.64-.92-11.26-1.93-16.89-2.88q-13.49-2.29-27-4.53a2.52,2.52,0,0,1-2-1.31c-5.14-8.7-9.55-17.72-12.14-27.55a62.73,62.73,0,0,1-2.18-18,3.54,3.54,0,0,1,.91-2.26,260.48,260.48,0,0,1,19.57-21c3.5-3.45,7-6.85,10.58-10.25A4.39,4.39,0,0,1,258.5,105.33Z"/><path class="cls-3" d="M326.36,246a69.15,69.15,0,0,1-29.85-6.84,1.84,1.84,0,0,1-1.22-1.71c-.72-7.18-1.41-14.36-2.25-21.53a111.73,111.73,0,0,0-4.14-20.31,1.54,1.54,0,0,1,.53-1.87,241.29,241.29,0,0,0,32.23-34.63,1.39,1.39,0,0,1,1.74-.55c8.81,2.31,17.62,4.63,26.45,6.87,2.44.62,4.94,1,7.43,1.47a1.56,1.56,0,0,1,1.35,1.06,68.77,68.77,0,0,1,4.75,18.22c1,8.22,1.56,16.48,2.29,24.72a2.23,2.23,0,0,1-.36,1.43c-5.52,7.26-11,14.56-16.65,21.71a51.88,51.88,0,0,1-10.13,9.72,8.9,8.9,0,0,1-5.15,1.88C331,245.74,328.7,245.9,326.36,246Z"/><path class="cls-3" d="M225.3,138.78c.2,3.32.26,6.44.6,9.53a73.68,73.68,0,0,0,6.79,23.3c2.22,4.74,4.82,9.29,7.28,13.91a1.12,1.12,0,0,1,0,1.46c-7.76,10.26-13.66,21.59-18.71,33.36-1,2.24-2,3.07-4.51,2.93-5.41-.29-10.85-.11-16.21-1.13a29,29,0,0,1-13.29-6,6.49,6.49,0,0,1-1-1.12c-5-7-8.09-14.83-10.1-23.1-1.29-5.26-2.21-10.61-3.27-15.92a2.63,2.63,0,0,1,0-1.08c3-12.62,8.16-24.18,16.61-34.15,1.16-1.37,2.43-2.64,3.71-3.9a1.67,1.67,0,0,1,1.22-.42,165.24,165.24,0,0,0,22.55,1.85C219.75,138.43,222.55,138.63,225.3,138.78Z"/><path class="cls-3" d="M334.84,246.71c-.27,7.35-1.16,14.55-5.23,21.17l2,.15,2.13.12c-.46.31-.72.51-1,.69a105.21,105.21,0,0,1-41.08,15,95.68,95.68,0,0,1-22.36.78,30.69,30.69,0,0,1-13.41-4.2,4.91,4.91,0,0,1-2.63-4c-.47-5.15-1-10.27-.32-15.46.3-2.28,1.14-3.57,3.44-4.33,6.91-2.29,13.76-4.79,20.58-7.33a66.71,66.71,0,0,0,17.4-9.24,1.6,1.6,0,0,1,1.34,0,70.84,70.84,0,0,0,19.73,6.21,73.75,73.75,0,0,0,18.3.48l.77-.08A1.59,1.59,0,0,1,334.84,246.71Z"/><path class="cls-3" d="M242.4,82.86c3-1.49,5.83-3.08,8.78-4.32A100.73,100.73,0,0,1,276.51,72a39,39,0,0,1,8.22.18,104.69,104.69,0,0,1,26,5.29,6.87,6.87,0,0,1,2,1.1c5.7,4.51,11.24,9.19,15.85,14.85,1.75,2.15,3.31,4.44,5,6.66-2.91,1.43-5.64,2.66-8.27,4.08A143.53,143.53,0,0,0,308,115.48a1.43,1.43,0,0,1-1.75.16A100.9,100.9,0,0,0,279,107.13c-6.27-1.09-12.6-1.85-18.92-2.68a3.28,3.28,0,0,1-2.67-1.66C254,97.39,250.64,92,246.44,87.13,245.24,85.76,243.93,84.47,242.4,82.86Z"/><path class="cls-3" d="M252.56,257.81c-1.77,6.66-.93,13.32-.12,20.21-1.45.23-2.83.55-4.23.64-5.71.36-11.07-1.24-16.15-3.56a105.52,105.52,0,0,1-44.33-38c-.12-.18-.22-.37-.37-.61l1.31-.57c-2.42-6.15-3.67-12.43-2.49-19.15.87.63,1.65,1.23,2.46,1.77a30.4,30.4,0,0,0,14.7,5c5.21.42,10.46.5,15.69.64a2.86,2.86,0,0,1,2.46,1.22c3.94,5.1,7.85,10.24,11.95,15.22A82.32,82.32,0,0,0,252,257.4C252.2,257.51,252.36,257.66,252.56,257.81Z"/><path class="cls-3" d="M376.17,216.07c-2.52-1.33-4.94-2.78-7.52-3.89a2.71,2.71,0,0,1-2-2.81,215.18,215.18,0,0,0-2.53-25.46A76,76,0,0,0,359.4,167a1.64,1.64,0,0,1-.06-1.13c2.54-6.2,3.8-12.75,5.21-19.25.7-3.26,1.34-6.53,2-9.79a5.82,5.82,0,0,1,.22-.68,16.43,16.43,0,0,1,6.29,2.74,11.49,11.49,0,0,1,4.82,6.37,108.92,108.92,0,0,1,4.88,41.19A105.52,105.52,0,0,1,376.62,215C376.47,215.36,376.3,215.75,376.17,216.07Z"/><path class="cls-3" d="M315.48,79.18a106.93,106.93,0,0,1,60.21,60.15c-1.73-1-3.41-2.06-5.11-3a3.5,3.5,0,0,0-1.41-.57c-2.22-.2-3.32-1.72-4.48-3.39-6.58-9.47-14.67-17.6-23-25.48-2.08-2-4.19-3.89-6.28-5.84a4.23,4.23,0,0,1-.78-.91c-4.22-7.18-10-13-16.27-18.33l-2.76-2.34S315.54,79.36,315.48,79.18Z"/><path class="cls-3" d="M170.21,173.7c-.9-22.41,14.79-57.27,32.29-71.8.78.33.35.77.14,1.22-1.81,3.8-3.77,7.54-5.37,11.42A60.29,60.29,0,0,0,192.76,135a1.85,1.85,0,0,1-.46,1.14c-9.65,9.52-15.54,21.16-19.35,34-.21.7-.41,1.4-.59,2.11C172,173.82,172,173.82,170.21,173.7Z"/><path class="cls-3" d="M203.36,100.94c18.1-16.78,39.4-26.4,64.07-28.49-1.9.47-3.8.91-5.68,1.42-6.59,1.78-13.08,3.89-18.8,7.71-3.12,2.08-6.64,3-10,4.42a188.63,188.63,0,0,0-28.21,14.92,6.19,6.19,0,0,1-1.23.44Z"/><g class="cls-4"><text class="cls-5" transform="translate(0 284.85)"><tspan xml:space="preserve">4  4</tspan></text></g></svg>